{
  "source": "C:\\Users\\Peter\\Desktop\\stuff\\MIUN\\quantitative_research\\video_compression\\videos\\BVI-HD\\RockWater_1920x1080_30fps.mp4",
  "output": "C:\\Users\\Peter\\Desktop\\stuff\\MIUN\\quantitative_research\\video_compression\\compressed_videos\\BVI-HD\\vp9\\12\\RockWater_1920x1080_30fps_vp9.webm",
  "codec": "vp9",
  "ok": "Input #0, mov,mp4,m4a,3gp,3g2,mj2, from 'C:\\Users\\Peter\\Desktop\\stuff\\MIUN\\quantitative_research\\video_compression\\videos\\BVI-HD\\RockWater_1920x1080_30fps.mp4':\n  Metadata:\n    major_brand     : isom\n    minor_version   : 512\n    compatible_brands: isomiso2avc1mp41\n    encoder         : Lavf54.28.101\n  Duration: 00:00:05.00, start: 0.000000, bitrate: 245943 kb/s\n  Stream #0:0[0x1](und): Video: h264 (High 4:4:4 Predictive) (avc1 / 0x31637661), yuv420p(progressive), 1920x1080, 245940 kb/s, 30 fps, 30 tbr, 30 tbn (default)\n    Metadata:\n      handler_name    : VideoHandler\n      vendor_id       : [0][0][0][0]\n[out#0/webm @ 00000155fd8f0c40] Codec AVOption b:a (set bitrate (in bits/s)) has not been used for any stream. The most likely reason is either wrong type (e.g. a video option with no video streams) or that it is a private option of some decoder which was not actually used for any stream.\nStream mapping:\n  Stream #0:0 -> #0:0 (h264 (native) -> vp9 (libvpx-vp9))\nPress [q] to stop, [?] for help\n[libvpx-vp9 @ 00000155fd8ecbc0] v1.15.2-100-g40561f514\nOutput #0, webm, to 'C:\\Users\\Peter\\Desktop\\stuff\\MIUN\\quantitative_research\\video_compression\\compressed_videos\\BVI-HD\\vp9\\12\\RockWater_1920x1080_30fps_vp9.webm':\n  Metadata:\n    major_brand     : isom\n    minor_version   : 512\n    compatible_brands: isomiso2avc1mp41\n    encoder         : Lavf62.3.100\n  Stream #0:0(und): Video: vp9, yuv420p(tv, progressive), 1920x1080, q=2-31, 12000 kb/s, 30 fps, 1k tbn (default)\n    Metadata:\n      encoder         : Lavc62.11.100 libvpx-vp9\n      handler_name    : VideoHandler\n      vendor_id       : [0][0][0][0]\n    Side data:\n      cpb: bitrate max/min/avg: 0/0/0 buffer size: 12000000 vbv_delay: N/A\nframe=    0 fps=0.0 q=0.0 size=       0KiB time=N/A bitrate=N/A speed=N/A elapsed=0:00:00.50    \nframe=    2 fps=1.7 q=23.0 size=       1KiB time=00:00:00.06 bitrate=  76.1kbits/s speed=0.0569x elapsed=0:00:01.17    \nframe=    5 fps=2.9 q=41.0 size=       1KiB time=00:00:00.16 bitrate=  30.4kbits/s speed=0.0958x elapsed=0:00:01.73    \nframe=    8 fps=3.5 q=40.0 size=       1KiB time=00:00:00.26 bitrate=  19.0kbits/s speed=0.117x elapsed=0:00:02.27    \nframe=   10 fps=3.6 q=38.0 size=       1KiB time=00:00:00.33 bitrate=  15.2kbits/s speed=0.12x elapsed=0:00:02.78    \nframe=   12 fps=3.6 q=38.0 size=       1KiB time=00:00:00.40 bitrate=  12.7kbits/s speed=0.121x elapsed=0:00:03.30    \nframe=   15 fps=3.9 q=39.0 size=       1KiB time=00:00:00.50 bitrate=  10.1kbits/s speed=0.131x elapsed=0:00:03.81    \nframe=   18 fps=4.1 q=40.0 size=       1KiB time=00:00:00.60 bitrate=   8.5kbits/s speed=0.138x elapsed=0:00:04.34    \nframe=   20 fps=4.1 q=38.0 size=       1KiB time=00:00:00.66 bitrate=   7.6kbits/s speed=0.136x elapsed=0:00:04.90    \nframe=   22 fps=4.0 q=37.0 size=       1KiB time=00:00:00.73 bitrate=   6.9kbits/s speed=0.134x elapsed=0:00:05.45    \nframe=   24 fps=4.0 q=40.0 size=       1KiB time=00:00:00.80 bitrate=   6.3kbits/s speed=0.134x elapsed=0:00:05.97    \nframe=   27 fps=4.2 q=42.0 size=       1KiB time=00:00:00.90 bitrate=   5.6kbits/s speed=0.139x elapsed=0:00:06.49    \nframe=   30 fps=4.3 q=39.0 size=       1KiB time=00:00:01.00 bitrate=   5.1kbits/s speed=0.142x elapsed=0:00:07.02    \nframe=   32 fps=4.2 q=39.0 size=       1KiB time=00:00:01.06 bitrate=   4.8kbits/s speed=0.141x elapsed=0:00:07.58    \nframe=   35 fps=4.3 q=39.0 size=       1KiB time=00:00:01.16 bitrate=   4.3kbits/s speed=0.143x elapsed=0:00:08.14    \nframe=   37 fps=4.3 q=39.0 size=       1KiB time=00:00:01.23 bitrate=   4.1kbits/s speed=0.142x elapsed=0:00:08.67    \nframe=   40 fps=4.4 q=38.0 size=       1KiB time=00:00:01.33 bitrate=   3.8kbits/s speed=0.145x elapsed=0:00:09.19    \nframe=   43 fps=4.4 q=36.0 size=       1KiB time=00:00:01.43 bitrate=   3.5kbits/s speed=0.148x elapsed=0:00:09.71    \nframe=   45 fps=4.4 q=35.0 size=       1KiB time=00:00:01.50 bitrate=   3.4kbits/s speed=0.147x elapsed=0:00:10.22    \nframe=   47 fps=4.4 q=13.0 size=       1KiB time=00:00:01.56 bitrate=   3.2kbits/s speed=0.146x elapsed=0:00:10.76    \nframe=   50 fps=4.4 q=39.0 size=       1KiB time=00:00:01.66 bitrate=   3.0kbits/s speed=0.148x elapsed=0:00:11.28    \nframe=   52 fps=4.4 q=39.0 size=       1KiB time=00:00:01.73 bitrate=   2.9kbits/s speed=0.147x elapsed=0:00:11.79    \nframe=   55 fps=4.5 q=41.0 size=       1KiB time=00:00:01.83 bitrate=   2.8kbits/s speed=0.149x elapsed=0:00:12.34    \nframe=   57 fps=4.4 q=28.0 size=       1KiB time=00:00:01.90 bitrate=   2.7kbits/s speed=0.147x elapsed=0:00:12.88    \nframe=   60 fps=4.5 q=35.0 size=       1KiB time=00:00:02.00 bitrate=   2.5kbits/s speed=0.149x elapsed=0:00:13.41    \nframe=   62 fps=4.4 q=34.0 size=       1KiB time=00:00:02.06 bitrate=   2.5kbits/s speed=0.148x elapsed=0:00:13.98    \nframe=   64 fps=4.4 q=34.0 size=       1KiB time=00:00:02.13 bitrate=   2.4kbits/s speed=0.147x elapsed=0:00:14.51    \nframe=   66 fps=4.4 q=34.0 size=       1KiB time=00:00:02.20 bitrate=   2.3kbits/s speed=0.146x elapsed=0:00:15.01    \nframe=   68 fps=4.4 q=34.0 size=       1KiB time=00:00:02.26 bitrate=   2.2kbits/s speed=0.146x elapsed=0:00:15.54    \nframe=   71 fps=4.4 q=31.0 size=       1KiB time=00:00:02.36 bitrate=   2.1kbits/s speed=0.147x elapsed=0:00:16.09    \nframe=   73 fps=4.4 q=33.0 size=       1KiB time=00:00:02.43 bitrate=   2.1kbits/s speed=0.146x elapsed=0:00:16.65    \nframe=   76 fps=4.4 q=34.0 size=       1KiB time=00:00:02.53 bitrate=   2.0kbits/s speed=0.147x elapsed=0:00:17.18    \nframe=   78 fps=4.4 q=36.0 size=       1KiB time=00:00:02.60 bitrate=   2.0kbits/s speed=0.147x elapsed=0:00:17.72    \nframe=   81 fps=4.4 q=38.0 size=       1KiB time=00:00:02.70 bitrate=   1.9kbits/s speed=0.148x elapsed=0:00:18.26    \nframe=   84 fps=4.5 q=36.0 size=       1KiB time=00:00:02.80 bitrate=   1.8kbits/s speed=0.149x elapsed=0:00:18.80    \nframe=   86 fps=4.4 q=40.0 size=       1KiB time=00:00:02.86 bitrate=   1.8kbits/s speed=0.148x elapsed=0:00:19.33    \nframe=   89 fps=4.5 q=38.0 size=       1KiB time=00:00:02.96 bitrate=   1.7kbits/s speed=0.149x elapsed=0:00:19.85    \nframe=   92 fps=4.5 q=39.0 size=       1KiB time=00:00:03.06 bitrate=   1.7kbits/s speed=0.151x elapsed=0:00:20.36    \nframe=   94 fps=4.5 q=39.0 size=       1KiB time=00:00:03.13 bitrate=   1.6kbits/s speed=0.15x elapsed=0:00:20.89    \nframe=   96 fps=4.5 q=40.0 size=       1KiB time=00:00:03.20 bitrate=   1.6kbits/s speed=0.149x elapsed=0:00:21.43    \nframe=   99 fps=4.5 q=41.0 size=       1KiB time=00:00:03.30 bitrate=   1.5kbits/s speed=0.15x elapsed=0:00:21.97    \nframe=  101 fps=4.5 q=43.0 size=       1KiB time=00:00:03.36 bitrate=   1.5kbits/s speed=0.15x elapsed=0:00:22.51    \nframe=  104 fps=4.5 q=42.0 size=       1KiB time=00:00:03.46 bitrate=   1.5kbits/s speed=0.15x elapsed=0:00:23.04    \nframe=  106 fps=4.5 q=38.0 size=       1KiB time=00:00:03.53 bitrate=   1.4kbits/s speed=0.15x elapsed=0:00:23.59    \nframe=  108 fps=4.5 q=38.0 size=       1KiB time=00:00:03.60 bitrate=   1.4kbits/s speed=0.149x elapsed=0:00:24.15    \nframe=  110 fps=4.5 q=37.0 size=       1KiB time=00:00:03.66 bitrate=   1.4kbits/s speed=0.149x elapsed=0:00:24.67    \nframe=  113 fps=4.5 q=36.0 size=       1KiB time=00:00:03.76 bitrate=   1.3kbits/s speed=0.15x elapsed=0:00:25.19    \nframe=  115 fps=4.5 q=36.0 size=       1KiB time=00:00:03.83 bitrate=   1.3kbits/s speed=0.149x elapsed=0:00:25.72    \nframe=  117 fps=4.5 q=23.0 size=       1KiB time=00:00:03.90 bitrate=   1.3kbits/s speed=0.148x elapsed=0:00:26.28    \nframe=  119 fps=4.4 q=36.0 size=       1KiB time=00:00:03.96 bitrate=   1.3kbits/s speed=0.148x elapsed=0:00:26.80    \nframe=  122 fps=4.5 q=36.0 size=       1KiB time=00:00:04.06 bitrate=   1.2kbits/s speed=0.149x elapsed=0:00:27.32    \nframe=  124 fps=4.4 q=39.0 size=       1KiB time=00:00:04.13 bitrate=   1.2kbits/s speed=0.148x elapsed=0:00:27.89    \nframe=  126 fps=4.4 q=38.0 size=       1KiB time=00:00:04.20 bitrate=   1.2kbits/s speed=0.148x elapsed=0:00:28.45    \nframe=  126 fps=4.3 q=38.0 size=       1KiB time=00:00:04.20 bitrate=   1.2kbits/s speed=0.145x elapsed=0:00:28.98    \nframe=  126 fps=4.3 q=38.0 size=       1KiB time=00:00:04.20 bitrate=   1.2kbits/s speed=0.142x elapsed=0:00:29.57    \nframe=  126 fps=4.2 q=38.0 size=       1KiB time=00:00:04.20 bitrate=   1.2kbits/s speed=0.139x elapsed=0:00:30.20    \nframe=  126 fps=4.1 q=38.0 size=       1KiB time=00:00:04.20 bitrate=   1.2kbits/s speed=0.136x elapsed=0:00:30.85    \nframe=  126 fps=4.0 q=38.0 size=       1KiB time=00:00:04.20 bitrate=   1.2kbits/s speed=0.133x elapsed=0:00:31.48    \nframe=  126 fps=3.9 q=38.0 size=       1KiB time=00:00:04.20 bitrate=   1.2kbits/s speed=0.131x elapsed=0:00:31.98    \nframe=  126 fps=3.9 q=38.0 size=       1KiB time=00:00:04.20 bitrate=   1.2kbits/s speed=0.129x elapsed=0:00:32.50    \nframe=  126 fps=3.8 q=38.0 size=       1KiB time=00:00:04.20 bitrate=   1.2kbits/s speed=0.127x elapsed=0:00:33.02    \nframe=  126 fps=3.8 q=38.0 size=       1KiB time=00:00:04.20 bitrate=   1.2kbits/s speed=0.125x elapsed=0:00:33.57    \nframe=  126 fps=3.7 q=38.0 size=       1KiB time=00:00:04.20 bitrate=   1.2kbits/s speed=0.123x elapsed=0:00:34.13    \nframe=  126 fps=3.6 q=38.0 size=       1KiB time=00:00:04.20 bitrate=   1.2kbits/s speed=0.121x elapsed=0:00:34.67    \nframe=  126 fps=3.6 q=38.0 size=       1KiB time=00:00:04.20 bitrate=   1.2kbits/s speed=0.119x elapsed=0:00:35.21    \n[out#0/webm @ 00000155fd8f0c40] video:5834KiB audio:0KiB subtitle:0KiB other streams:0KiB global headers:0KiB muxing overhead: 0.031706%\nframe=  150 fps=4.2 q=35.0 Lsize=    5836KiB time=00:00:05.00 bitrate=9560.9kbits/s speed=0.14x elapsed=0:00:35.65    \n",
  "seconds": 36.08156132698059,
  "probe_out": {}
}